<?xml version="1.0" standalone="no"?>
<!DOCTYPE svg PUBLIC "-//W3C//DTD SVG 20010904//EN"
 "http://www.w3.org/TR/2001/REC-SVG-20010904/DTD/svg10.dtd">
<svg version="1.0" xmlns="http://www.w3.org/2000/svg"
 width="120.000000pt" height="120.000000pt" viewBox="0 0 120.000000 120.000000"
 preserveAspectRatio="xMidYMid meet">
<g transform="translate(0.000000,120.000000) scale(0.100000,-0.100000)" stroke="none">
<path d="M462 1180 c-110 -26 -197 -75 -278 -155 -76 -76 -118 -143 -154 -245
-19 -52 -23 -87 -24 -175 0 -177 51 -303 173 -426 55 -54 161 -129 185 -129 3
0 6 121 6 269 0 206 -3 270 -12 273 -7 2 -59 4 -115 3 -77 -1 -103 1 -103 11
0 7 4 14 9 16 5 2 92 82 193 179 248 238 250 240 259 237 10 -4 439 -422 439
-428 0 -3 -42 -5 -92 -5 -51 1 -100 -1 -108 -3 -13 -3 -15 -41 -15 -272 0
-148 3 -272 7 -275 14 -14 125 61 193 130 120 121 177 268 170 438 -7 162 -62
286 -179 402 -75 75 -174 131 -271 155 -81 20 -201 20 -283 0z" fill="#333"/>
</g>
</svg>
