<?xml version="1.0" standalone="no"?>
<!DOCTYPE svg PUBLIC "-//W3C//DTD SVG 20010904//EN"
 "http://www.w3.org/TR/2001/REC-SVG-20010904/DTD/svg10.dtd">
<svg version="1.0" xmlns="http://www.w3.org/2000/svg"
 width="40.000000pt" height="40.000000pt" viewBox="0 0 40.000000 40.000000"
 preserveAspectRatio="xMidYMid meet">
<metadata>
Created by potrace 1.11, written by Peter Selinger 2001-2013
</metadata>
<g transform="translate(0.000000,40.000000) scale(0.100000,-0.100000)"
fill="#eee" stroke="none">
<path d="M135 385 c-83 -29 -145 -132 -130 -214 14 -77 73 -142 146 -161 161
-44 300 132 224 281 -31 58 -116 110 -180 109 -11 -1 -38 -7 -60 -15z m145
-38 c51 -27 90 -90 90 -145 0 -75 -58 -149 -130 -167 -25 -6 -27 -3 -48 67
-12 41 -22 77 -22 80 0 3 12 6 28 5 15 -1 48 0 75 1 l47 2 0 56 0 56 -52 -6
c-29 -4 -77 -7 -105 -6 -29 0 -53 -1 -53 -2 0 -7 68 -225 75 -242 7 -17 5 -18
-21 -12 -76 19 -134 91 -134 168 0 85 84 168 170 168 20 0 56 -10 80 -23z"/>
</g>
</svg>
