<?xml version="1.0" encoding="UTF-8" standalone="no"?>
<svg
   xmlns:dc="http://purl.org/dc/elements/1.1/"
   xmlns:cc="http://creativecommons.org/ns#"
   xmlns:rdf="http://www.w3.org/1999/02/22-rdf-syntax-ns#"
   xmlns:svg="http://www.w3.org/2000/svg"
   xmlns="http://www.w3.org/2000/svg"
   xmlns:sodipodi="http://sodipodi.sourceforge.net/DTD/sodipodi-0.dtd"
   xmlns:inkscape="http://www.inkscape.org/namespaces/inkscape"
   version="1.0"
   width="400.000000pt"
   height="400.000000pt"
   viewBox="0 0 400.000000 400.000000"
   preserveAspectRatio="xMidYMid meet"
   id="svg2"
   inkscape:version="0.48.4 r9939"
   sodipodi:docname="forbid.svg">
  <defs
     id="defs12" />
  <sodipodi:namedview
     pagecolor="#ffffff"
     bordercolor="#666666"
     borderopacity="1"
     objecttolerance="10"
     gridtolerance="10"
     guidetolerance="10"
     inkscape:pageopacity="0"
     inkscape:pageshadow="2"
     inkscape:window-width="1920"
     inkscape:window-height="1025"
     id="namedview10"
     showgrid="false"
     inkscape:zoom="1.3350176"
     inkscape:cx="293.78592"
     inkscape:cy="208.50469"
     inkscape:window-x="-8"
     inkscape:window-y="-4"
     inkscape:window-maximized="1"
     inkscape:current-layer="svg2" />
  <metadata
     id="metadata4">
Created by potrace 1.11, written by Peter Selinger 2001-2013
<rdf:RDF>
  <cc:Work
     rdf:about="">
    <dc:format>image/svg+xml</dc:format>
    <dc:type
       rdf:resource="http://purl.org/dc/dcmitype/StillImage" />
  </cc:Work>
</rdf:RDF>
</metadata>
  <g
     transform="matrix(0.12300688,0,0,-0.11085454,71.80848,337.72902)"
     id="g3024"
     style="fill:#ececec;stroke:none">
    <path
       inkscape:connector-curvature="0"
       d="m 1054,2753 c -44,-40 -56,-73 -61,-171 -3,-54 -10,-103 -16,-109 -5,-7 -24,-13 -43,-13 -18,0 -45,-5 -60,-11 -30,-11 -84,-62 -103,-96 -14,-27 -15,-130 -1,-138 6,-3 10,-17 10,-30 0,-13 5,-27 10,-30 6,-3 10,-14 10,-24 0,-10 9,-26 20,-36 11,-10 20,-25 20,-34 0,-9 13,-32 30,-51 16,-19 29,-40 30,-45 0,-6 27,-37 60,-70 33,-33 58,-65 55,-72 -2,-7 1,-13 8,-13 7,0 23,-13 37,-29 14,-16 47,-54 74,-85 l 48,-56 -26,-34 c -14,-19 -26,-42 -26,-51 0,-8 -7,-18 -16,-22 -8,-3 -13,-12 -10,-20 5,-11 -5,-14 -47,-12 -28,1 -77,-3 -107,-10 -69,-14 -272,-103 -325,-141 -22,-16 -65,-47 -95,-69 -30,-21 -102,-85 -160,-142 -91,-90 -111,-116 -149,-194 -43,-90 -44,-90 -45,-206 -1,-98 2,-120 16,-136 28,-31 23,-53 -11,-53 C 135,550 109,536 53,482 12,443 0,425 0,401 c 0,-16 5,-33 10,-36 6,-4 9,-22 6,-40 -4,-26 -1,-37 13,-47 10,-7 20,-18 22,-24 9,-26 96,-86 196,-136 58,-29 108,-60 110,-69 3,-10 24,-20 56,-27 68,-15 314,-17 350,-3 16,6 55,12 87,14 32,1 57,3 55,5 -6,7 146,142 159,142 8,0 19,-7 26,-15 7,-9 15,-13 17,-11 3,2 32,-9 66,-25 53,-25 69,-28 117,-22 87,10 160,58 160,106 0,8 7,20 15,27 28,23 18,64 -25,103 -22,19 -40,43 -40,51 0,9 -4,16 -10,16 -5,0 -10,7 -10,15 0,8 -4,15 -10,15 -5,0 -10,7 -10,16 0,10 -6,14 -14,11 -11,-5 -16,7 -21,51 -4,31 -11,74 -16,94 -10,37 -10,37 69,112 43,41 84,87 92,103 8,15 22,40 32,55 10,14 18,35 18,45 0,10 9,36 20,58 11,22 20,59 20,85 0,25 6,54 13,63 6,9 40,23 75,31 35,8 69,19 75,24 7,5 28,13 47,17 19,4 59,19 88,33 43,21 58,35 78,73 13,26 28,50 34,54 12,8 13,98 1,123 -48,99 -79,151 -100,171 -36,34 -181,131 -197,131 -9,0 -13,35 -16,135 -2,90 -7,138 -15,147 -7,6 -13,29 -13,49 0,21 -4,41 -10,44 -5,3 -10,26 -10,51 0,24 -4,44 -8,44 -8,0 -52,92 -52,110 0,6 -4,10 -10,10 -5,0 -10,10 -10,21 0,13 -22,43 -53,74 -29,29 -51,57 -49,63 1,5 -8,18 -21,28 -12,11 -26,27 -30,37 -3,9 -27,30 -52,46 -25,16 -58,42 -73,58 -15,16 -39,37 -54,46 -37,23 -119,22 -144,0 z"
       id="path3026"
       style="fill:#ececec" />
  </g>
  <g
     transform="translate(0.000000,400.000000) scale(0.100000,-0.100000)"
     fill="#000000"
     stroke="none"
     id="g6"
     style="fill:#ff2a2a">
    <path
       d="M1816 3988 c-844 -74 -1553 -687 -1756 -1518 -40 -167 -54 -284 -54 -470 0 -186 14 -303 54 -470 163 -668 646 -1197 1295 -1420 654 -224 1386 -87 1920 362 327 275 552 638 655 1058 40 167 54 284 54 470 0 186 -14 303 -54 470 -206 840 -912 1445 -1775 1519 -136 12 -198 12 -339 -1z m530 -282 c401 -84 774 -315 1019 -631 352 -453 456 -1037 283 -1585 -37 -117 -137 -332 -153 -328 -7 2 -614 476 -1349 1053 l-1336 1050 57 53 c176 164 482 319 743 378 165 37 232 43 430 39 149 -3 208 -9 306 -29z m-502 -1898 l1339 -1053 -54 -48 c-81 -73 -261 -190 -379 -246 -141 -67 -258 -106 -409 -138 -114 -25 -146 -27 -341 -27 -195 0 -227 2 -341 27 -329 70 -620 222 -852 446 -217 210 -357 429 -447 700 -121 365 -121 727 0 1092 38 115 123 299 138 299 4 0 610 -474 1346 -1052z"
       id="path8"
       style="fill:#ff2a2a" />
  </g>
</svg>
