<?xml version="1.0" encoding="UTF-8" standalone="no"?>
<svg
   xmlns:dc="http://purl.org/dc/elements/1.1/"
   xmlns:cc="http://creativecommons.org/ns#"
   xmlns:rdf="http://www.w3.org/1999/02/22-rdf-syntax-ns#"
   xmlns:svg="http://www.w3.org/2000/svg"
   xmlns="http://www.w3.org/2000/svg"
   xmlns:sodipodi="http://sodipodi.sourceforge.net/DTD/sodipodi-0.dtd"
   xmlns:inkscape="http://www.inkscape.org/namespaces/inkscape"
   version="1.0"
   width="40.000000pt"
   height="40.000000pt"
   viewBox="0 0 40.000000 40.000000"
   preserveAspectRatio="xMidYMid meet"
   id="svg3208"
   inkscape:version="0.48.4 r9939"
   sodipodi:docname="question.svg">
  <metadata
     id="metadata3218">
    <rdf:RDF>
      <cc:Work
         rdf:about="">
        <dc:format>image/svg+xml</dc:format>
        <dc:type
           rdf:resource="http://purl.org/dc/dcmitype/StillImage" />
      </cc:Work>
    </rdf:RDF>
  </metadata>
  <defs
     id="defs3216" />
  <sodipodi:namedview
     pagecolor="#ffffff"
     bordercolor="#666666"
     borderopacity="1"
     objecttolerance="10"
     gridtolerance="10"
     guidetolerance="10"
     inkscape:pageopacity="0"
     inkscape:pageshadow="2"
     inkscape:window-width="1920"
     inkscape:window-height="1025"
     id="namedview3214"
     showgrid="false"
     inkscape:zoom="18.88"
     inkscape:cx="30.53678"
     inkscape:cy="20.682594"
     inkscape:window-x="-8"
     inkscape:window-y="-4"
     inkscape:window-maximized="1"
     inkscape:current-layer="svg3208" />
  <g
     transform="translate(0.000000,40.000000) scale(0.100000,-0.100000)"
     id="g3210"
     clip-path="none"
     stroke="none"
     fill="#eee">
    <path
       d="M 135,385 C 52,356 -10,253 5,171 19,94 78,29 151,10 312,-34 451,142 375,291 344,349 259,401 195,400 c -11,-1 -38,-7 -60,-15 z m 153,-60 c 31,-37 25,-86 -18,-130 -16,-17 -30,-36 -30,-43 0,-5.85494 -11.19359,-10.31069 -28.89949,-11.61176 C 207.63775,140.13379 203.92591,140 200,140 c -0.42688,0 -1.79232,-27.71595 -1.79232,-27.71595 -1.20489,0.31472 1.84821,-2.60119 1.84821,-2.60119 34.99231,-0.23239 53.16689,-19.314678 53.32402,-37.648832 0.17178,-20.044154 -19.82498,-41.072315 -55.93242,-41.757266 -34.44828,-0.653478 -60.67672,21.26125 -59.64069,46.85358 0.73786,18.226717 20.05846,33.226808 58.50359,32.641738 5.74468,-0.0874 1.92803,-2.63947 1.96657,2.03363 l 0.084,10.18254 c 0.0567,6.87432 2.39453,17.22297 2.05761,17.23233 -1.15814,0.0322 -7.79575,0.92337 -8.89589,0.97881 -2.25416,0.11358 -4.38653,0.27637 -6.39699,0.49011 C 149.15493,144.51358 152.21023,164.64442 195,211 c 37,42 42,58 23,77 -16,16 -43,15 -79,-4 l -30,-15 3,38 c 4,44 24,54 102,49 40,-3 55,-9 74,-31 z"
       id="path3212"
       inkscape:connector-curvature="0"
       sodipodi:nodetypes="ccccccccsssssssssssssscsccccc" />
  </g>
</svg>
