<?xml version="1.0" standalone="no"?>
<!DOCTYPE svg PUBLIC "-//W3C//DTD SVG 20010904//EN"
 "http://www.w3.org/TR/2001/REC-SVG-20010904/DTD/svg10.dtd">
<svg version="1.0" xmlns="http://www.w3.org/2000/svg"
 width="199.000000pt" height="277.000000pt" viewBox="0 0 199.000000 277.000000"
 preserveAspectRatio="xMidYMid meet">
<metadata>
Created by potrace 1.11, written by Peter Selinger 2001-2013
</metadata>
<g transform="translate(0.000000,277.000000) scale(0.100000,-0.100000)"
fill="#000000" stroke="none">
<path d="M1054 2753 c-44 -40 -56 -73 -61 -171 -3 -54 -10 -103 -16 -109 -5
-7 -24 -13 -43 -13 -18 0 -45 -5 -60 -11 -30 -11 -84 -62 -103 -96 -14 -27
-15 -130 -1 -138 6 -3 10 -17 10 -30 0 -13 5 -27 10 -30 6 -3 10 -14 10 -24 0
-10 9 -26 20 -36 11 -10 20 -25 20 -34 0 -9 13 -32 30 -51 16 -19 29 -40 30
-45 0 -6 27 -37 60 -70 33 -33 58 -65 55 -72 -2 -7 1 -13 8 -13 7 0 23 -13 37
-29 14 -16 47 -54 74 -85 l48 -56 -26 -34 c-14 -19 -26 -42 -26 -51 0 -8 -7
-18 -16 -22 -8 -3 -13 -12 -10 -20 5 -11 -5 -14 -47 -12 -28 1 -77 -3 -107
-10 -69 -14 -272 -103 -325 -141 -22 -16 -65 -47 -95 -69 -30 -21 -102 -85
-160 -142 -91 -90 -111 -116 -149 -194 -43 -90 -44 -90 -45 -206 -1 -98 2
-120 16 -136 28 -31 23 -53 -11 -53 -46 0 -72 -14 -128 -68 -41 -39 -53 -57
-53 -81 0 -16 5 -33 10 -36 6 -4 9 -22 6 -40 -4 -26 -1 -37 13 -47 10 -7 20
-18 22 -24 9 -26 96 -86 196 -136 58 -29 108 -60 110 -69 3 -10 24 -20 56 -27
68 -15 314 -17 350 -3 16 6 55 12 87 14 32 1 57 3 55 5 -6 7 146 142 159 142
8 0 19 -7 26 -15 7 -9 15 -13 17 -11 3 2 32 -9 66 -25 53 -25 69 -28 117 -22
87 10 160 58 160 106 0 8 7 20 15 27 28 23 18 64 -25 103 -22 19 -40 43 -40
51 0 9 -4 16 -10 16 -5 0 -10 7 -10 15 0 8 -4 15 -10 15 -5 0 -10 7 -10 16 0
10 -6 14 -14 11 -11 -5 -16 7 -21 51 -4 31 -11 74 -16 94 -10 37 -10 37 69
112 43 41 84 87 92 103 8 15 22 40 32 55 10 14 18 35 18 45 0 10 9 36 20 58
11 22 20 59 20 85 0 25 6 54 13 63 6 9 40 23 75 31 35 8 69 19 75 24 7 5 28
13 47 17 19 4 59 19 88 33 43 21 58 35 78 73 13 26 28 50 34 54 12 8 13 98 1
123 -48 99 -79 151 -100 171 -36 34 -181 131 -197 131 -9 0 -13 35 -16 135 -2
90 -7 138 -15 147 -7 6 -13 29 -13 49 0 21 -4 41 -10 44 -5 3 -10 26 -10 51 0
24 -4 44 -8 44 -8 0 -52 92 -52 110 0 6 -4 10 -10 10 -5 0 -10 10 -10 21 0 13
-22 43 -53 74 -29 29 -51 57 -49 63 1 5 -8 18 -21 28 -12 11 -26 27 -30 37 -3
9 -27 30 -52 46 -25 16 -58 42 -73 58 -15 16 -39 37 -54 46 -37 23 -119 22
-144 0z"/>
</g>
</svg>
