<?xml version="1.0" standalone="no"?>
<!DOCTYPE svg PUBLIC "-//W3C//DTD SVG 20010904//EN"
 "http://www.w3.org/TR/2001/REC-SVG-20010904/DTD/svg10.dtd">
<svg version="1.0" xmlns="http://www.w3.org/2000/svg"
 width="298.000000pt" height="294.000000pt" viewBox="0 0 298.000000 294.000000"
 preserveAspectRatio="xMidYMid meet">
<metadata>
Created by potrace 1.11, written by Peter Selinger 2001-2013
</metadata>
<g transform="translate(0.000000,294.000000) scale(0.100000,-0.100000)"
fill="#eee" stroke="none">
<path d="M1345 2934 c-297 -46 -475 -111 -687 -253 -325 -218 -546 -546 -630
-934 -29 -133 -32 -404 -6 -543 55 -294 191 -549 407 -764 277 -277 605 -420
996 -436 751 -32 1408 499 1535 1241 78 458 -72 919 -409 1255 -219 218 -455
346 -756 410 -97 21 -374 35 -450 24z m415 -29 c241 -43 465 -145 665 -301
148 -115 195 -178 195 -261 0 -23 8 -41 25 -57 32 -30 32 -44 -2 -52 -16 -3
-37 -9 -48 -13 -18 -7 -17 -9 13 -25 36 -19 34 -36 -5 -36 -24 0 -25 -2 -18
-32 4 -18 10 -49 14 -68 8 -38 35 -96 57 -120 26 -31 -19 -126 -53 -113 -16 6
-73 90 -73 107 0 8 7 19 15 26 37 31 7 80 -49 80 -27 0 -38 20 -34 66 2 33
-22 83 -56 117 -14 14 -27 42 -31 68 -4 24 -17 61 -31 81 -13 20 -26 48 -30
63 -4 18 -21 33 -56 51 -52 26 -91 26 -69 0 9 -10 8 -16 -4 -26 -13 -11 -11
-15 14 -29 16 -9 45 -30 66 -47 l37 -32 -21 -21 c-37 -37 -81 -22 -130 46 -22
30 -52 53 -100 77 -38 19 -72 43 -75 53 -8 20 17 43 45 43 28 0 49 11 49 26 0
18 -37 38 -45 24 -8 -14 -45 -13 -45 1 0 17 -59 69 -133 117 l-66 44 -28 -22
c-26 -19 -33 -20 -80 -9 -44 10 -58 10 -95 -4 -72 -28 -162 -20 -173 14 -7 21
-53 26 -83 9 -9 -5 -39 -13 -66 -18 -33 -5 -52 -13 -60 -27 -15 -27 -27 -35
-55 -35 -30 0 -62 -27 -54 -46 3 -8 -5 -15 -21 -19 -14 -3 -37 -7 -51 -10 -18
-4 -25 -12 -25 -29 0 -17 -19 -43 -61 -83 -66 -63 -108 -88 -89 -53 16 30 12
50 -10 50 -11 0 -27 12 -37 26 -20 31 -11 51 33 74 40 21 53 40 54 77 0 26 6
34 38 50 43 21 55 62 27 93 -15 17 -13 19 39 39 78 29 188 57 276 70 41 6 86
13 100 15 50 9 317 -4 400 -19z m-35 -533 c17 -10 51 -26 77 -35 64 -25 138
-91 138 -125 0 -14 -7 -33 -15 -42 -17 -19 -31 -134 -21 -174 3 -14 18 -32 32
-39 l26 -14 -47 -13 c-42 -12 -51 -11 -81 5 -19 10 -34 24 -34 31 0 7 -9 19
-21 27 -13 10 -23 30 -26 57 -5 33 -15 49 -52 81 -25 22 -64 50 -86 62 -25 14
-47 37 -59 60 -14 30 -21 35 -31 27 -8 -6 -17 -25 -20 -41 -9 -39 -18 -43 -48
-15 -24 22 -24 25 -12 71 10 40 17 51 40 58 22 8 31 6 39 -5 13 -17 32 -13 61
12 40 34 94 39 140 12z m-725 -28 c6 -14 10 -37 10 -51 0 -14 12 -41 26 -60
26 -35 170 -153 185 -153 5 0 9 11 9 25 0 14 -4 25 -10 25 -12 0 -51 80 -44
91 12 19 42 7 77 -31 30 -33 37 -48 37 -81 0 -26 5 -42 15 -45 21 -9 45 14 45
42 0 13 5 24 10 24 6 0 10 -10 10 -23 0 -37 23 -60 58 -59 18 0 34 -4 38 -9 3
-6 -25 -41 -64 -77 -55 -53 -73 -77 -82 -111 -16 -60 -1 -87 58 -103 38 -11
46 -18 57 -51 13 -38 41 -77 56 -77 4 0 10 19 14 43 3 23 11 55 17 70 8 21 8
31 -1 40 -17 17 -15 117 3 117 25 0 68 -20 98 -45 16 -14 41 -25 55 -25 32 0
105 -53 139 -101 36 -53 27 -75 -41 -94 -59 -18 -105 -48 -105 -71 0 -17 8
-17 40 1 35 20 47 18 53 -6 5 -17 12 -21 36 -17 19 3 31 0 31 -7 0 -17 -81
-67 -98 -60 -15 5 -72 -49 -72 -69 0 -6 -9 -17 -21 -24 -24 -15 -59 -93 -59
-132 0 -22 -10 -36 -49 -64 -54 -40 -77 -82 -67 -123 24 -96 15 -108 -28 -43
-37 56 -84 77 -138 63 -29 -8 -48 -8 -64 -1 -12 6 -42 8 -66 4 -37 -6 -48 -13
-71 -48 -20 -31 -27 -55 -27 -90 0 -45 3 -50 42 -78 48 -35 90 -39 109 -10 8
11 25 21 39 22 23 3 25 0 23 -32 -1 -19 -3 -46 -5 -59 -3 -22 2 -25 52 -35 77
-16 81 -20 78 -78 -3 -44 0 -53 22 -69 14 -10 46 -22 72 -25 43 -6 51 -4 82
24 45 39 68 46 111 32 22 -7 41 -8 52 -2 10 5 57 12 105 15 76 5 94 3 135 -15
33 -15 72 -22 127 -23 78 -2 79 -2 110 -40 36 -42 28 -42 188 -3 72 18 90 19
102 8 14 -11 12 -18 -19 -62 -19 -26 -43 -74 -53 -105 -15 -50 -24 -61 -87
-108 -76 -56 -227 -141 -315 -176 -79 -31 -236 -75 -298 -84 l-53 -7 7 51 c6
46 5 51 -13 51 -10 0 -43 25 -73 56 -30 30 -79 71 -107 91 -47 31 -53 39 -53
69 0 34 6 42 71 98 14 12 19 29 19 66 l0 50 -54 0 c-74 0 -139 29 -156 69 -13
33 -64 82 -108 105 -15 7 -67 28 -117 45 -60 21 -102 43 -125 65 -19 19 -49
41 -67 50 -38 19 -54 45 -46 74 3 12 -8 49 -25 89 -17 37 -38 94 -47 126 -15
55 -30 71 -41 44 -5 -13 8 -82 22 -123 6 -17 5 -17 -9 -4 -25 24 -87 239 -87
301 0 123 28 218 86 296 21 27 24 43 24 111 0 47 6 98 16 123 20 57 29 167 16
200 -7 17 -27 34 -54 46 -104 48 -114 53 -86 47 24 -5 28 -1 47 40 20 47 23
49 76 50 21 1 33 8 40 23 9 22 28 27 113 31 26 2 34 -3 42 -24z m1768 -131
c51 -83 113 -226 140 -319 44 -150 56 -234 56 -401 1 -152 0 -163 -20 -182
-12 -10 -31 -36 -44 -56 -19 -31 -26 -36 -49 -30 -84 21 -150 187 -151 380 0
69 -5 102 -22 143 -19 46 -20 57 -9 87 6 19 15 82 18 141 6 104 6 106 30 101
21 -4 23 -1 23 32 -1 23 -9 47 -24 65 -21 25 -22 31 -10 43 9 9 11 25 7 45 -9
45 7 30 55 -49z m-1261 -92 c42 -20 67 -39 77 -59 8 -16 28 -35 44 -41 41 -17
52 -47 34 -85 -8 -17 -17 -33 -18 -35 -2 -2 -31 4 -64 14 -56 17 -59 19 -44
36 9 10 14 30 12 51 -3 29 -9 36 -55 58 -63 30 -88 53 -80 74 9 22 23 20 94
-13z"/>
</g>
</svg>
