<?xml version="1.0" encoding="UTF-8" standalone="no"?>

<svg
   xmlns="http://www.w3.org/2000/svg"
   width="32px"
   height="32px"
   id="svg3124"
   version="1.1">
  <defs id="defs3126" />
  <g id="layer1">
    <path
       style="fill:#eee;stroke:none"
       id="path44"
       d="M 16.055684,2.1021127 C 15.871176,2.4472883 15.462614,3.2727042 15.159479,3.933042 14.210553,5.9890931 13.749278,6.7844956 13.195729,7.2797552 11.996397,8.375309 9.4263929,9.410836 7.9239259,9.410836 c -0.777586,0 -1.159795,-0.105051 -3.703438,-0.960489 -0.830308,-0.270138 -1.555181,-0.465238 -1.607902,-0.4052027 -0.0527,0.045016 -0.158156,1.1405777 -0.237229,2.4162297 -0.079058,1.275651 -0.197693,3.001529 -0.2635905,3.826953 -0.4481065,5.477794 -0.474459,8.25421 -0.052705,8.64441 0.1054426,0.09005 0.1845164,0.255127 0.1845164,0.360187 0,0.09004 0.118611,0.300151 0.26359,0.450226 0.144971,0.150076 0.26359,0.330174 0.26359,0.3902 0,0.07505 0.329488,0.675341 0.724865,1.3657 0.830316,1.410716 0.883037,1.800916 0.461291,3.19663 -0.144979,0.48024 -0.26359,0.930475 -0.26359,1.005513 0,0.05999 0.329488,0.120062 0.724873,0.120062 0.685328,0 0.79077,-0.04502 1.542004,-0.765397 1.014815,-0.960489 2.069184,-1.560792 2.504106,-1.44073 0.171332,0.05999 0.896213,0.675341 1.6078942,1.380703 0.93575,
       0.930475 1.370672,1.275651 1.647446,1.275651 0.474459,0 3.848418,-0.960489 4.731447,-1.350689 1.502459,-0.660338 4.415135,-2.401227 8.790733,-5.25268 1.238877,-0.810414 2.96539,-1.875954 3.861594,-2.386216 0.883029,-0.510262 1.607902,-0.960489 1.607902,-1.005514 0,-0.240124 -1.52882,-2.701378 -2.451385,-3.947015 -1.17298,-1.590814 -1.96375,-2.80643 -2.411848,-3.706892 C 25.689926,12.292312 24.451057,10.836563 23.106737,9.395833 21.24843,7.4148199 20.48402,6.4843444 19.943664,5.5388663 c -0.461283,-0.7804 -1.212517,-1.7559 -2.056009,-2.6563537 -0.738049,-0.7803999 -1.370664,-1.4257352 -1.4102,-1.4257352 -0.03949,0.014977 -0.224062,0.3001596 -0.421754,0.6453353 z" />
  </g>
</svg>
